<svg width="8234" height="1983" viewBox="0 0 8234 1983" fill="none" xmlns="http://www.w3.org/2000/svg">
<path d="M897 1057V911.5H1191C1194 934 1194 961 1194 983.5C1194 1300 937.5 1555 622.5 1555C309 1555 54 1300 54 983.5C54 671.5 309 415 622.5 415C777 415 915 475 1018.5 574L918 679C841.5 605.5 736.5 560.5 622.5 560.5C390 560.5 199.5 751 199.5 983.5C199.5 1219 390 1409.5 622.5 1409.5C834 1409.5 1008 1255 1042.5 1057H897Z" fill="#E8E4D9"/>
<path d="M897 1057V911.5H1191C1194 934 1194 961 1194 983.5C1194 1300 937.5 1555 622.5 1555C309 1555 54 1300 54 983.5C54 671.5 309 415 622.5 415C777 415 915 475 1018.5 574L918 679C841.5 605.5 736.5 560.5 622.5 560.5C390 560.5 199.5 751 199.5 983.5C199.5 1219 390 1409.5 622.5 1409.5C834 1409.5 1008 1255 1042.5 1057H897ZM1348.58 1519V451H1494.08V1373.5H2157.08V1519H1348.58ZM2214.64 983.5C2214.64 671.5 2469.64 415 2783.14 415C3099.64 415 3354.64 671.5 3354.64 983.5C3354.64 1300 3099.64 1555 2783.14 1555C2469.64 1555 2214.64 1300 2214.64 983.5ZM3209.14 983.5C3209.14 751 3018.64 560.5 2783.14 560.5C2550.64 560.5 2360.14 751 2360.14 983.5C2360.14 1219 2550.64 1409.5 2783.14 1409.5C3018.64 1409.5 3209.14 1219 3209.14 983.5ZM3656.19 1093H3974.19C4118.19 1093 4238.19 982 4238.19 842.5C4236.69 704.5 4118.19 592 3974.19 592H3656.19V1093ZM3510.69 1519V451H3974.19C4199.19 451 4383.69 626.5 4383.69 842.5C4383.69 995.5 4289.19 1127.5 4157.19 1192L4383.69 1519H4203.69L4005.69 1231C3998.19 1232.5 3987.69 1232.5 3980.19 1232.5H3656.19V1519H3510.69ZM4558.05 1519V451H4703.55V1519H4558.05ZM4860.15 983.5C4860.15 671.5 5115.15 415 5428.65 415C5745.15 415 6000.15 671.5 6000.15 983.5C6000.15 1300 5745.15 1555 5428.65 1555C5115.15 1555 4860.15 1300 4860.15 983.5ZM5854.65 983.5C5854.65 751 5664.15 560.5 5428.65 560.5C5196.15 560.5 5005.65 751 5005.65 983.5C5005.65 1219 5196.15 1409.5 5428.65 1409.5C5664.15 1409.5 5854.65 1219 5854.65 983.5ZM6295.7 451V1079.5C6295.7 1261 6435.2 1409.5 6609.2 1409.5C6783.2 1409.5 6922.7 1261 6922.7 1079.5V451H7068.2V1079.5C7068.2 1343.5 6861.2 1555 6609.2 1555C6357.2 1555 6150.2 1343.5 6150.2 1079.5V451H6295.7ZM7212.55 1384L7298.05 1255C7446.55 1357 7586.05 1406.5 7706.05 1406.5C7883.05 1406.5 7985.05 1324 7985.05 1250.5C7985.05 1004.5 7220.05 1099 7220.05 725.5C7220.05 530.5 7413.55 415 7632.55 415C7776.55 415 7932.55 464.5 8091.55 566.5L8010.55 691C7875.55 605.5 7734.55 560.5 7619.05 560.5C7455.55 560.5 7365.55 641.5 7365.55 721C7365.55 941.5 8130.55 853 8130.55 1247.5C8130.55 1412.5 7967.05 1555 7700.05 1555C7551.55 1555 7385.05 1498 7212.55 1384Z" fill="#E8E4D9"/>
<circle cx="5392.5" cy="991.5" r="151.5" fill="#E8E4D9"/>
<rect x="5466" y="940" width="458" height="103" rx="51.5" fill="#E8E4D9"/>
<circle cx="555.5" cy="991.5" r="151.5" fill="#E8E4D9"/>
<rect x="629" y="911" width="458" height="146" rx="73" fill="#E8E4D9"/>
</svg>
